<svg version="1.1" id="Layer_2" xmlns="http://www.w3.org/2000/svg" xmlns:xlink="http://www.w3.org/1999/xlink" x="0px" y="0px"
	 width="40px" height="50px" viewBox="0 0 40 50" style="enable-background:new 0 0 40 50;" xml:space="preserve">
<style type="text/css">
	#ratio-totalMinutesAsleep
	 .st0{fill:#512B8D;}
	#ratio-totalMinutesAsleep
	 .st1{fill:#EBEBEB;}
	#ratio-totalMinutesAsleep
	 .st2{fill:none;
	stroke:#512B8D;stroke-width:2;stroke-miterlimit:10;}
</style>
<g id="ratio-totalMinutesAsleep">
	<rect id="attr" y="2" class="st0" width="17" height="46"/>
	<path id="mask"	class="st1" d="M0,0v50h40V0H0z M26.9,33.5c-2.2,4.8-7.1,8-12.4,8c-9.6,0-16.3-10.3-12.3-19.1
		c1.8-4.1,5.8-7,10.3-7.8c4.5-0.6,9.1,1,12.1,4.5C28.2,23.1,29,28.8,26.9,33.5z"/>
	<g id="totalMinutesAsleep">
		<path id="desc_1_" class="st0" d="M35.5,10.8c-3.5-3.1-8.7-3.4-12.6-0.6c-1.6,1.2-2.9,2.9-3.6,4.7c2.3,0.7,4.3,2.1,6,3.9
			c0.2,0.2,0.4,0.5,0.6,0.8c0.6-0.6,1.2-1.2,1.9-2c0.8-0.8,1.6-1.6,2.5-2.6c0.6-0.7,1.5-1.5,2.5-0.6c0.9,0.9,0.2,1.9-0.4,2.5
			c-0.8,0.8-1.6,1.6-2.5,2.5c-0.8,0.8-1.6,1.6-2.5,2.6l0,0c1,2.2,1.4,4.5,1.2,6.9c3.8,0.1,7.5-2.1,9.3-5.5
			C40,19.3,39,13.9,35.5,10.8z M27.2,15.4c-1.4,1.4-3.7-0.8-2.3-2.3c0,0,0.3-0.3,0,0C26.3,11.7,28.6,13.9,27.2,15.4z M34.2,22.6
			c-1.4,1.4-3.7-0.8-2.3-2.3C33.4,18.9,35.6,21.1,34.2,22.6z"/>
		<path id="circle_1_" class="st2" d="M15,41.4C5.4,41.4-1.4,31,2.7,22.2c1.9-4.1,5.9-7.1,10.4-7.8c4.5-0.6,9.2,1,12.2,4.5
			c3.5,4,4.3,9.8,2.2,14.5C25.2,38.2,20.3,41.4,15,41.4"/>
	</g>
</g>
</svg>
