<?xml version="1.0" encoding="utf-8"?>
<!-- Generator: Adobe Illustrator 15.0.0, SVG Export Plug-In . SVG Version: 6.00 Build 0)  -->
<!DOCTYPE svg PUBLIC "-//W3C//DTD SVG 1.1//EN" "http://www.w3.org/Graphics/SVG/1.1/DTD/svg11.dtd">
<svg version="1.1" id="Layer_2" xmlns="http://www.w3.org/2000/svg" xmlns:xlink="http://www.w3.org/1999/xlink" x="0px" y="0px"
	 width="40px" height="50px" viewBox="0 0 40 50" style="enable-background:new 0 0 40 50;" xml:space="preserve">
<style type="text/css">
<![CDATA[
	.st0{fill:none;stroke:#FAB657;stroke-width:2;stroke-miterlimit:10;}
	.st1{fill:#EBEBEB;}
	.st2{fill:#F8B55D;}
	.st3{fill:#FAB657;}
]]>
</style>
<g id="ratio-logWeight">
	<rect id="attr" y="2" class="st3" width="18" height="46"/>
	<path class="st1" d="M0,0v50h40V0H0z M28.9,34.5c-2.2,4.8-7.1,8-12.4,8c-9.6,0-16.3-10.3-12.3-19.1c1.8-4.1,5.8-7,10.3-7.8
		c4.5-0.6,9.1,1,12.1,4.5C30.2,24.1,31,29.8,28.9,34.5z"/>
	<g id="data-logWeight">
		<path id="logWeight-circle" class="st0" d="M16.5,42.5c-9.6,0-16.3-10.3-12.2-19.1c1.8-4.1,5.8-7,10.3-7.8c4.5-0.6,9.1,1,12.1,4.5
			c3.5,4,4.3,9.7,2.1,14.4C26.6,39.3,21.7,42.5,16.5,42.5"/>
		<g id="logWeight-desc">
			<path class="st2" d="M34.9,8H22.5c-2,0-3.7,1.7-3.7,3.7V16c5.8,1,10.3,5.8,10.9,11.8h5.2c2.1,0,3.7-1.7,3.7-3.7V11.7
				C38.6,9.7,36.9,8,34.9,8z M32.5,18h-7.6l-3-4.7c0,0,2.3-3,6.8-3c4.6,0,6.9,3,6.9,3L32.5,18z"/>
			<polygon class="st2" points="30.7,17.3 31.7,11.8 28.7,17.3 			"/>
		</g>
	</g>
</g>
</svg>
