<?xml version="1.0" encoding="utf-8"?>
<!-- Generator: Adobe Illustrator 15.0.0, SVG Export Plug-In . SVG Version: 6.00 Build 0)  -->
<!DOCTYPE svg PUBLIC "-//W3C//DTD SVG 1.1//EN" "http://www.w3.org/Graphics/SVG/1.1/DTD/svg11.dtd">
<svg version="1.1" id="Layer_2" xmlns="http://www.w3.org/2000/svg" xmlns:xlink="http://www.w3.org/1999/xlink" x="0px" y="0px"
	 width="40px" height="50px" viewBox="0 0 40 50" style="enable-background:new 0 0 40 50;" xml:space="preserve">
<style type="text/css">
<![CDATA[
	.st0{fill:#EBEBEB;}
	.st1{fill:#512B8D;}
	.st2{fill:none;stroke:#512B8D;stroke-width:2;stroke-miterlimit:10;}
]]>
</style>
<g id="ratio-restingHeartRate">
	<rect id="attr" y="1.7" class="st1" width="12.5" height="46.3"/>
	<path id="mask" class="st0" d="M0,0v50h40V0H0z M28,34c-2.2,4.8-7.1,8-12.4,8C6,42-0.7,31.7,3.3,22.9c1.8-4.1,5.8-7,10.3-7.8
		c4.5-0.6,9.1,1,12.1,4.5C29.3,23.6,30.1,29.3,28,34z"/>
	<g id="restingHeartRate">
		<path id="desc_2_" class="st1" d="M36.8,8.7c-2.3-1.3-5.3-0.9-7.1,0.9c-1.9-1.8-4.9-2.2-7.1-0.9c-2,1.1-3.2,3.1-3.2,5.4
			c0,0.4,0.1,0.8,0.1,1.2c1,0.3,1.9,0.6,2.8,1.1h0.3h1.5H28l1.4-3.7c0.1-0.3,0.4-0.5,0.7-0.5c0.3,0,0.5,0.3,0.6,0.6l1,5l1.3-2.5
			c0.1-0.2,0.3-0.4,0.6-0.4H36c0.4,0,0.7,0.4,0.7,0.8c0,0.4-0.3,0.8-0.7,0.8h-2.1l-1.9,3.8c-0.1,0.2-0.3,0.4-0.6,0.4
			c0,0-0.1,0-0.1,0c-0.3,0-0.5-0.3-0.6-0.6l-0.9-4.5l-0.7,2c-0.1,0.3-0.3,0.5-0.6,0.5h-3.7c2.4,2,4.1,4.8,4.7,7.9
			c0.1,0,0.2,0.1,0.2,0.1c0.1,0,0.2,0,0.4-0.1c0.4-0.2,8.7-5.5,9.6-9.8c0.2-0.6,0.3-1.2,0.3-1.9C40,11.9,38.8,9.8,36.8,8.7z"/>
		<path id="circle_3_" class="st2" d="M15.6,42C6,42-0.8,31.7,3.3,22.8c1.8-4.1,5.8-7.1,10.3-7.8c4.5-0.6,9.1,1,12.2,4.5
			c3.5,4,4.3,9.7,2.2,14.4C25.7,38.8,20.8,42,15.6,42"/>
	</g>
</g>
</svg>
