<?xml version="1.0" encoding="utf-8"?>
<!-- Generator: Adobe Illustrator 15.0.0, SVG Export Plug-In . SVG Version: 6.00 Build 0)  -->
<!DOCTYPE svg PUBLIC "-//W3C//DTD SVG 1.1//EN" "http://www.w3.org/Graphics/SVG/1.1/DTD/svg11.dtd">
<svg version="1.1" id="Layer_1" xmlns="http://www.w3.org/2000/svg" xmlns:xlink="http://www.w3.org/1999/xlink" x="0px" y="0px"
	 width="218px" height="720px" viewBox="0 0 218 720" style="enable-background:new 0 0 218 720;" xml:space="preserve">
<g id="after-body" style="display:none;">
	<g id="a-arms" style="display:inline;">
		<path id="b-left-arm_1_" style="fill:#FFFFFF;stroke:#646A6E;stroke-width:7;stroke-linejoin:round;stroke-miterlimit:10;" d="
			M32.9,192v72.4c0,0-7.2,37.1-9.1,50.1c-1.8,12.9-3.2,15,0,31.5c3.2,16.7,7.7,37.1,7.7,37.1h4.8c0,0,11.9-44.1,43.2-87.2
			l-30.9-96.5L32.9,192z"/>
		<path id="b-right-arm_1_" style="fill:#FFFFFF;stroke:#646A6E;stroke-width:7;stroke-linejoin:round;stroke-miterlimit:10;" d="
			M185.8,192v72.4c0,0,7.2,37.1,9.1,50.1c1.8,12.9,3.2,15,0,31.5c-3.2,16.7-7.7,37.1-7.7,37.1h-4.8c0,0-10.5-44.1-41.9-87.2
			l29.6-96.5L185.8,192z"/>
	</g>
	<g id="a-b" style="display:inline;">
		<path id="a-bottom" style="fill:#FFFFFF;stroke:#646A6E;stroke-width:7;stroke-linejoin:round;stroke-miterlimit:10;" d="M109,296
			H64.3c0,0-14.1,20.4-23.3,60.7c-9.3,40.3-3.7,103.4,8.3,148.9l5.1,172L7.6,715.2l68.2-12.1v-19c0,0,17.2-165.5,17.2-175.1
			c0,0,12.5-102.2,13.4-132.4h5.2C112.5,406.7,125,509,125,509c0,9.5,17.2,175.1,17.2,175.1v19l68.2,12.1l-46.8-37.6l5.1-172
			c12.1-45.4,17.6-108.5,8.3-148.9c-9.3-40.3-23.3-60.7-23.3-60.7H109"/>
		<g id="a-layer-line">
			
				<line id="a-ankle-left" style="fill:none;stroke:#646A6E;stroke-width:4;stroke-linejoin:round;stroke-miterlimit:10;" x1="54.5" y1="677.6" x2="75.8" y2="684.1"/>
			
				<line id="a-angkle-right" style="fill:none;stroke:#646A6E;stroke-width:4;stroke-linejoin:round;stroke-miterlimit:10;" x1="163.5" y1="677.6" x2="142.2" y2="684.1"/>
			
				<line id="a-bottom-line" style="fill:none;stroke:#646A6E;stroke-width:7;stroke-linejoin:round;stroke-miterlimit:10;" x1="92" y1="375.7" x2="125.4" y2="375.7"/>
		</g>
	</g>
	<g id="a-t" style="display:inline;">
		<path id="a-top" style="fill:#FFFFFF;stroke:#646A6E;stroke-width:7;stroke-linejoin:round;stroke-miterlimit:10;" d="M109,296
			h44.7l13.6-90l31.1-14.8L187.2,143c-26.4-28.8-78.2-25.5-78.2-25.5s-51.8-3.2-78.2,25.5l-11.1,48.2l31,14.8l13.6,90H109z"/>
		<path id="a-neck" style="fill:none;stroke:#646A6E;stroke-width:7;stroke-linejoin:round;stroke-miterlimit:10;" d="M157,124.2
			c0,0-4.1,13.7-12,25.3s-23.8,15.8-36,15.8s-28.1-4.2-36-15.8s-12-25.3-12-25.3S102.8,108.6,157,124.2z"/>
	</g>
</g>
<g id="sync-before-body" style="display:none;">
	<g id="a-arms_1_" style="display:inline;">
		<g id="b-left-arm_2_">
			<path style="fill:#FFFFFF;" d="M32.9,192v72.4c0,0-7.2,37.1-9.1,50.1c-1.8,12.9-3.2,15,0,31.5c3.2,16.7,7.7,37.1,7.7,37.1h4.8
				c0,0,11.9-44.1,43.2-87.2l-30.9-96.5L32.9,192z"/>
			<g>
				<polyline style="fill:none;stroke:#C0C3C5;stroke-width:7;stroke-linejoin:round;" points="39,194.9 32.9,192 32.9,198.7 				
					"/>
				<path style="fill:none;stroke:#C0C3C5;stroke-width:7;stroke-linejoin:round;stroke-dasharray:13.6646,3.9042;" d="M32.9,202.6
					v61.8c0,0-7.2,37.1-9.1,50.1c-1.8,12.9-3.2,15,0,31.5c1.9,9.9,4.3,21.2,5.9,28.6"/>
				<path style="fill:none;stroke:#C0C3C5;stroke-width:7;stroke-linejoin:round;" d="M30.1,376.6c0.9,4,1.4,6.6,1.4,6.6h4.8
					c0,0,0.6-2.3,2-6.4"/>
				<path style="fill:none;stroke:#C0C3C5;stroke-width:7;stroke-linejoin:round;stroke-dasharray:12.5581,3.5881;" d="M39.5,373.3
					c4.9-14.2,15.9-42,35.2-70.4"/>
				<path style="fill:none;stroke:#C0C3C5;stroke-width:7;stroke-linejoin:round;" d="M75.8,301.5c1.3-1.8,2.6-3.7,3.9-5.5l-2.1-6.4
					"/>
				
					<line style="fill:none;stroke:#C0C3C5;stroke-width:7;stroke-linejoin:round;stroke-dasharray:13.0927,3.7408;" x1="76.4" y1="286" x2="51.3" y2="207.7"/>
				<polyline style="fill:none;stroke:#C0C3C5;stroke-width:7;stroke-linejoin:round;" points="50.7,205.9 48.7,199.5 42.6,196.6 
									"/>
			</g>
		</g>
		<g id="b-right-arm_2_">
			<path style="fill:#FFFFFF;" d="M185.8,192v72.4c0,0,7.2,37.1,9.1,50.1c1.8,12.9,3.2,15,0,31.5c-3.2,16.7-7.7,37.1-7.7,37.1h-4.8
				c0,0-10.5-44.1-41.9-87.2l29.6-96.5L185.8,192z"/>
			<g>
				<polyline style="fill:none;stroke:#C0C3C5;stroke-width:7;stroke-linejoin:round;" points="179.7,194.9 185.8,192 185.8,198.7 
									"/>
				<path style="fill:none;stroke:#C0C3C5;stroke-width:7;stroke-linejoin:round;stroke-dasharray:13.6647,3.9042;" d="M185.8,202.6
					v61.8c0,0,7.2,37.1,9.1,50.1c1.8,12.9,3.2,15,0,31.5c-1.9,9.9-4.3,21.2-5.9,28.6"/>
				<path style="fill:none;stroke:#C0C3C5;stroke-width:7;stroke-linejoin:round;" d="M188.6,376.6c-0.9,4-1.4,6.6-1.4,6.6h-4.8
					c0,0-0.6-2.3-1.8-6.5"/>
				<path style="fill:none;stroke:#C0C3C5;stroke-width:7;stroke-linejoin:round;stroke-dasharray:12.4779,3.5651;" d="M179.5,373.3
					c-4.5-14.2-14.9-42-34.1-70.3"/>
				<path style="fill:none;stroke:#C0C3C5;stroke-width:7;stroke-linejoin:round;" d="M144.4,301.5c-1.3-1.8-2.5-3.7-3.9-5.5l2-6.4"
					/>
				
					<line style="fill:none;stroke:#C0C3C5;stroke-width:7;stroke-linejoin:round;stroke-dasharray:13.0307,3.7231;" x1="143.6" y1="286" x2="167.5" y2="207.7"/>
				<polyline style="fill:none;stroke:#C0C3C5;stroke-width:7;stroke-linejoin:round;" points="168.1,205.9 170.1,199.5 
					176.1,196.6 				"/>
			</g>
		</g>
	</g>
	<g id="a-b_1_" style="display:inline;">
		<g id="a-bottom_1_">
			<path style="fill:#FFFFFF;" d="M109,296H64.3c0,0-14.1,20.4-23.3,60.7c-9.3,40.3-3.7,103.4,8.3,148.9l5.1,172L7.6,715.2
				l68.2-12.1v-19c0,0,17.2-165.5,17.2-175.1c0,0,12.5-102.2,13.4-132.4h5.2C112.5,406.7,125,509,125,509
				c0,9.5,17.2,175.1,17.2,175.1v19l68.2,12.1l-46.8-37.6l5.1-172c12.1-45.4,17.6-108.5,8.3-148.9c-9.3-40.3-23.3-60.7-23.3-60.7
				H109"/>
			<g>
				<line style="fill:none;stroke:#C0C3C5;stroke-width:7;stroke-linejoin:round;" x1="109" y1="296" x2="102.3" y2="296"/>
				
					<line style="fill:none;stroke:#C0C3C5;stroke-width:7;stroke-linejoin:round;stroke-dasharray:10.9295,3.1227;" x1="99.2" y1="296" x2="72.6" y2="296"/>
				<path style="fill:none;stroke:#C0C3C5;stroke-width:7;stroke-linejoin:round;" d="M71.1,296h-6.7c0,0-1.3,1.9-3.4,5.8"/>
				<path style="fill:none;stroke:#C0C3C5;stroke-width:7;stroke-linejoin:round;stroke-dasharray:13.7173,3.9192;" d="M59.1,305.2
					c-4.9,9.7-12.4,26.9-18.1,51.5c-9.3,40.3-3.7,103.4,8.3,148.9L54.1,669"/>
				<polyline style="fill:none;stroke:#C0C3C5;stroke-width:7;stroke-linejoin:round;" points="54.3,670.9 54.5,677.6 49.2,681.8 
									"/>
				
					<line style="fill:none;stroke:#C0C3C5;stroke-width:7;stroke-linejoin:round;stroke-dasharray:11.2483,3.2138;" x1="46.7" y1="683.8" x2="14.1" y2="710"/>
				<polyline style="fill:none;stroke:#C0C3C5;stroke-width:7;stroke-linejoin:round;" points="12.9,711 7.6,715.2 14.2,714 				"/>
				
					<line style="fill:none;stroke:#C0C3C5;stroke-width:7;stroke-linejoin:round;stroke-dasharray:13.4657,3.8474;" x1="18" y1="713.3" x2="67.3" y2="704.6"/>
				<polyline style="fill:none;stroke:#C0C3C5;stroke-width:7;stroke-linejoin:round;" points="69.2,704.3 75.8,703.1 75.8,696.4 
									"/>
				<path style="fill:none;stroke:#C0C3C5;stroke-width:7;stroke-linejoin:round;stroke-dasharray:13.4264,3.8361;" d="M75.8,692.6
					v-8.5c0,0,17.2-165.5,17.2-175.1c0,0,10.6-86.4,13-123.8"/>
				<path style="fill:none;stroke:#C0C3C5;stroke-width:7;stroke-linejoin:round;" d="M106.1,383.4c0.2-2.5,0.3-4.8,0.3-6.7h5.2
					c0.1,2,0.2,4.2,0.3,6.7"/>
				<path style="fill:none;stroke:#C0C3C5;stroke-width:7;stroke-linejoin:round;stroke-dasharray:13.4264,3.8361;" d="M112.2,387.2
					c2.7,38.3,12.9,121.9,12.9,121.9c0,9.5,17.2,175.1,17.2,175.1v10.4"/>
				<polyline style="fill:none;stroke:#C0C3C5;stroke-width:7;stroke-linejoin:round;" points="142.2,696.4 142.2,703.1 
					148.8,704.3 				"/>
				
					<line style="fill:none;stroke:#C0C3C5;stroke-width:7;stroke-linejoin:round;stroke-dasharray:13.4662,3.8475;" x1="152.6" y1="705" x2="201.9" y2="713.7"/>
				<polyline style="fill:none;stroke:#C0C3C5;stroke-width:7;stroke-linejoin:round;" points="203.8,714 210.4,715.2 205.1,711 
									"/>
				
					<line style="fill:none;stroke:#C0C3C5;stroke-width:7;stroke-linejoin:round;stroke-dasharray:11.2487,3.2139;" x1="202.6" y1="709" x2="170" y2="682.8"/>
				<polyline style="fill:none;stroke:#C0C3C5;stroke-width:7;stroke-linejoin:round;" points="168.8,681.8 163.5,677.6 
					163.7,670.9 				"/>
				<path style="fill:none;stroke:#C0C3C5;stroke-width:7;stroke-linejoin:round;stroke-dasharray:13.7173,3.9192;" d="M163.9,667
					l4.8-161.4c12.1-45.4,17.6-108.5,8.3-148.9c-6-26.2-14.1-44-19-53.3"/>
				<path style="fill:none;stroke:#C0C3C5;stroke-width:7;stroke-linejoin:round;" d="M157.1,301.7c-2.1-3.8-3.4-5.8-3.4-5.8H147"/>
				
					<line style="fill:none;stroke:#C0C3C5;stroke-width:7;stroke-linejoin:round;stroke-dasharray:10.9299,3.1228;" x1="143.8" y1="296" x2="117.3" y2="296"/>
				<line style="fill:none;stroke:#C0C3C5;stroke-width:7;stroke-linejoin:round;" x1="115.7" y1="296" x2="109" y2="296"/>
			</g>
		</g>
		<g id="a-layer-line_1_">
			<g id="a-ankle-left_1_">
				<g>
					<line style="fill:none;stroke:#C0C3C5;stroke-width:4;stroke-linejoin:round;" x1="54.5" y1="677.6" x2="60.9" y2="679.6"/>
					<line style="fill:none;stroke:#C0C3C5;stroke-width:4;stroke-linejoin:round;" x1="69.4" y1="682.2" x2="75.8" y2="684.1"/>
				</g>
			</g>
			<g id="a-angkle-right_1_">
				<g>
					<line style="fill:none;stroke:#C0C3C5;stroke-width:4;stroke-linejoin:round;" x1="163.5" y1="677.6" x2="157.1" y2="679.6"/>
					<line style="fill:none;stroke:#C0C3C5;stroke-width:4;stroke-linejoin:round;" x1="148.6" y1="682.2" x2="142.2" y2="684.1"/>
				</g>
			</g>
			<g id="a-bottom-line_1_">
				<g>
					<line style="fill:none;stroke:#C0C3C5;stroke-width:7;stroke-linejoin:round;" x1="92" y1="375.7" x2="98.7" y2="375.7"/>
					
						<line style="fill:none;stroke:#C0C3C5;stroke-width:7;stroke-linejoin:round;stroke-dasharray:12.6967,3.6276;" x1="102.4" y1="375.7" x2="116.9" y2="375.7"/>
					<line style="fill:none;stroke:#C0C3C5;stroke-width:7;stroke-linejoin:round;" x1="118.7" y1="375.7" x2="125.4" y2="375.7"/>
				</g>
			</g>
		</g>
	</g>
	<g id="a-t_1_" style="display:inline;">
		<g id="a-top_1_">
			<path style="fill:#FFFFFF;" d="M109,296h44.7l13.6-90l31.1-14.8L187.2,143c-26.4-28.8-78.2-25.5-78.2-25.5s-51.8-3.2-78.2,25.5
				l-11.1,48.2l31,14.8l13.6,90H109z"/>
			<g>
				<polyline style="fill:none;stroke:#C0C3C5;stroke-width:7;stroke-linejoin:round;" points="146.9,296 153.7,296 154.7,289.3 
									"/>
				
					<line style="fill:none;stroke:#C0C3C5;stroke-width:7;stroke-linejoin:round;stroke-dasharray:14.2849,4.0814;" x1="155.3" y1="285.3" x2="165.9" y2="214.7"/>
				<polyline style="fill:none;stroke:#C0C3C5;stroke-width:7;stroke-linejoin:round;" points="166.2,212.7 167.3,206 173.3,203.1 
									"/>
				
					<line style="fill:none;stroke:#C0C3C5;stroke-width:7;stroke-linejoin:round;stroke-dasharray:13.3614,3.8175;" x1="176.8" y1="201.5" x2="190.5" y2="194.9"/>
				<polyline style="fill:none;stroke:#C0C3C5;stroke-width:7;stroke-linejoin:round;" points="192.3,194.1 198.3,191.2 
					196.8,184.6 				"/>
				<path style="fill:none;stroke:#C0C3C5;stroke-width:7;stroke-linejoin:round;stroke-dasharray:13.0208,3.7202;" d="M196,181
					l-8.8-38.1c-26.4-28.8-78.2-25.5-78.2-25.5s-51.8-3.2-78.2,25.5l-9.2,39.9"/>
				<polyline style="fill:none;stroke:#C0C3C5;stroke-width:7;stroke-linejoin:round;" points="21.2,184.6 19.7,191.2 25.7,194.1 
									"/>
				
					<line style="fill:none;stroke:#C0C3C5;stroke-width:7;stroke-linejoin:round;stroke-dasharray:13.3619,3.8177;" x1="29.2" y1="195.7" x2="43" y2="202.3"/>
				<polyline style="fill:none;stroke:#C0C3C5;stroke-width:7;stroke-linejoin:round;" points="44.7,203.1 50.7,206 51.7,212.7 				
					"/>
				
					<line style="fill:none;stroke:#C0C3C5;stroke-width:7;stroke-linejoin:round;stroke-dasharray:14.2849,4.0814;" x1="52.4" y1="216.7" x2="63" y2="287.3"/>
				<polyline style="fill:none;stroke:#C0C3C5;stroke-width:7;stroke-linejoin:round;" points="63.3,289.3 64.3,296 71.1,296 				
					"/>
				<polyline style="fill:none;stroke:#C0C3C5;stroke-width:7;stroke-linejoin:round;stroke-dasharray:13.9794,3.9941;" points="
					75,296 109,296 144.9,296 				"/>
			</g>
		</g>
		<g id="a-neck_1_">
			<g>
				<path style="fill:none;stroke:#C0C3C5;stroke-width:7;stroke-linejoin:round;" d="M150.5,122.4c2.1,0.5,4.3,1.1,6.5,1.7
					c0,0-0.8,2.5-2.2,6.3"/>
				<path style="fill:none;stroke:#C0C3C5;stroke-width:7;stroke-linejoin:round;stroke-dasharray:13.3819,3.8234;" d="M153.3,134
					c-2,4.6-4.8,10.2-8.3,15.4c-7.9,11.6-23.8,15.8-36,15.8s-28.1-4.2-36-15.8c-4-5.9-7-12.3-9-17.2"/>
				<path style="fill:none;stroke:#C0C3C5;stroke-width:7;stroke-linejoin:round;" d="M63.3,130.5c-1.5-3.8-2.2-6.3-2.2-6.3
					s2.3-0.8,6.4-1.9"/>
				<path style="fill:none;stroke:#C0C3C5;stroke-width:7;stroke-linejoin:round;stroke-dasharray:12.4882,3.5681;" d="M70.9,121.4
					c14.3-3.4,43.1-7.6,77.8,0.6"/>
			</g>
		</g>
	</g>
</g>
<g id="before-body">
	<g id="b-foots">
		
			<polygon id="b-right-foot" style="fill:none;stroke:#C0C3C5;stroke-width:7;stroke-linejoin:round;stroke-miterlimit:10;" points="
			163.5,677.6 210.4,715.2 142.2,703.1 142.2,684.1 		"/>
		<polygon id="b-left-foot" style="fill:none;stroke:#C0C3C5;stroke-width:7;stroke-linejoin:round;stroke-miterlimit:10;" points="
			75.8,684.1 75.8,703.1 7.6,715.2 54.5,677.6 		"/>
	</g>
	<g id="b-arms">
		<path id="b-left-arm" style="fill:#FFFFFF;stroke:#C0C3C5;stroke-width:7;stroke-linejoin:round;stroke-miterlimit:10;" d="
			M32.9,192v72.4c0,0-7.2,37.1-9.1,50.1c-1.8,12.9-3.2,15,0,31.5c3.2,16.7,7.7,37.1,7.7,37.1h4.8c0,0,11.9-44.1,43.2-87.2
			l-30.9-96.5L32.9,192z"/>
		<path id="b-right-arm" style="fill:#FFFFFF;stroke:#C0C3C5;stroke-width:7;stroke-linejoin:round;stroke-miterlimit:10;" d="
			M185.8,192v72.4c0,0,7.2,37.1,9.1,50.1c1.8,12.9,3.2,15,0,31.5c-3.2,16.7-7.7,37.1-7.7,37.1h-4.8c0,0-10.5-44.1-41.9-87.2
			l29.6-96.5L185.8,192z"/>
	</g>
	<g id="b-b">
		
			<polyline id="b-bottom" style="fill:#FFFFFF;stroke:#C0C3C5;stroke-width:7;stroke-linejoin:round;stroke-miterlimit:10;" points="
			108.7,375.7 109,677.6 25.1,677.6 47.8,296 109,296 108.8,296 169.9,296 192.7,677.6 108.8,677.6 		"/>
		
			<line id="b-bottom-line" style="fill:none;stroke:#C0C3C5;stroke-width:7;stroke-linejoin:round;stroke-miterlimit:10;" x1="92.2" y1="376.7" x2="125.6" y2="376.7"/>
	</g>
	<g id="b-t">
		<path id="b-top" style="fill:#FFFFFF;stroke:#C0C3C5;stroke-width:7;stroke-linejoin:round;stroke-miterlimit:10;" d="M109,296
			h61.7l-3.5-90l31.1-14.8L187.2,143c-26.4-28.8-78.2-25.5-78.2-25.5s-51.8-3.2-78.2,25.5l-11.1,48.2l31,14.8l-2.9,90H109z"/>
		<path id="b-neck" style="fill:none;stroke:#C0C3C5;stroke-width:7;stroke-linejoin:round;stroke-miterlimit:10;" d="M157,124.2
			c0,0-4.1,13.7-12,25.3s-23.8,15.8-36,15.8s-28.1-4.2-36-15.8s-12-25.3-12-25.3S102.8,108.6,157,124.2z"/>
	</g>
</g>
<path id="head_1_" style="display:none;fill:#C0C3C5;" d="M56.8,1v104.3h104.3V1H56.8z M144.5,88.6h-71V17.7h70.9L144.5,88.6
	L144.5,88.6z"/>
<g id="b-head" style="display:none;">
	<g style="display:inline;">
		<path style="fill:#C0C3C5;" d="M59.1,103V3h100v100H59.1z M78.8,83.3h60.5V24.1H78.8V83.3z"/>
	</g>
	<g style="display:inline;">
		<path style="fill:#FFFFFF;" d="M157.1,5v96h-96V5H157.1 M76.8,85.3h4h56.5h4v-4V26.1v-4h-4H80.8h-4v4v55.2V85.3 M161.1,1h-104v104
			h104V1L161.1,1z M80.8,81.3V26.1h56.5v55.2H80.8L80.8,81.3z"/>
	</g>
</g>
<path style="fill:#F0F0F0;" d="M61,101.2V5h96.2v96.2H61z M77,85h64.5V22.2H77V85z"/>
<g id="after-head">
	<g id="a-head_1_">
		<path style="fill:#F0F0F0;" d="M59.1,103V3h100v100H59.1z M78.8,83.3h60.5V24.1H78.8V83.3z"/>
		<path style="fill:#C0C3C5;" d="M157.1,5v96h-96V5H157.1 M76.8,85.3h4h56.5h4v-4V26.1v-4h-4H80.8h-4v4v55.2V85.3 M161.1,1h-104v104
			h104V1L161.1,1z M80.8,81.3V26.1h56.5v55.2H80.8L80.8,81.3z"/>
	</g>
	<g id="refresh-head" style="display:none;">
		<rect x="60.8" y="4.9" style="fill:#FFFFFF;" width="96.5" height="36.6"/>
	</g>
</g>
</svg>
