<svg version="1.1" id="body" xmlns="http://www.w3.org/2000/svg" xmlns:xlink="http://www.w3.org/1999/xlink" x="0px" y="0px"
	 width="218px" height="720px" viewBox="0 0 218 720" style="enable-background:new 0 0 218 720;" xml:space="preserve">
<style type="text/css">
<![CDATA[
#body	.status{clip-path:url(#SVGID_2_);}

#body	.color-white {fill:#FFFFFF;}
#body	.color-bg-grey {fill:#F0F0F0;}
#body	.color-medium-grey {fill:#C0C3C5;}
#body	.color-grey {fill:#A0A6A9;}

#body	.color-purple {fill:#512B8D;}
#body	.color-red {fill:#F74D52;}
#body	.color-yellow{fill:#FAB657;}

#body .stroke-dash7 {stroke-width:7;stroke-linejoin:round;stroke-miterlimit:10;stroke-dasharray:14.4761,4.136;}
#body .stroke-dash4 {stroke-width:4;stroke-linejoin:round;stroke-miterlimit:10;}

#body .color-stroke-medium-gray {stroke:#C0C3C5;}
#body .none {fill:none;}

]]>
</style>
<g id="before-sync-body">
	<g id="b-sync-arms">
		<path id="b-sync-left
		-arm" class="color-bg-grey stroke-dash7 color-stroke-medium-gray" d="M32.9,192v72.4c0,0-7.2,37.1-9.1,50.1c-1.8,12.9-3.2,15,0,31.5
			c3.2,16.7,7.7,37.1,7.7,37.1h4.8c0,0,11.9-44.1,43.2-87.2l-30.9-96.5L32.9,192z"/>
		<path id="b-sync-right
		-arm" class="color-bg-grey stroke-dash7 color-stroke-medium-gray" d="M185.8,192v72.4c0,0,7.2,37.1,9.1,50.1c1.8,12.9,3.2,15,0,31.5
			c-3.2,16.7-7.7,37.1-7.7,37.1h-4.8c0,0-10.5-44.1-41.9-87.2l29.6-96.5L185.8,192z"/>
	</g>
	<g id="b-sync-b">
		<path id="b-sync-bottom
		" class="color-bg-grey
		stroke-dash7 color-stroke-medium-gray" d="M109,296H64.3c0,0-14.1,20.4-23.3,60.7c-9.3,40.3-3.7,103.4,8.3,148.9l5.1,172L7.6,715.2
			l68.2-12.1v-19c0,0,17.2-165.5,17.2-175.1c0,0,12.5-102.2,13.4-132.4h5.2C112.5,406.7,125,509,125,509
			c0,9.5,17.2,175.1,17.2,175.1v19l68.2,12.1l-46.8-37.6l5.1-172c12.1-45.4,17.6-108.5,8.3-148.9c-9.3-40.3-23.3-60.7-23.3-60.7H109
			"/>
		<g id="b-sync-layer-line">
			<line id="b-sync-ankle-left" class="stroke-dash4 color-stroke-medium-gray" x1="54.5" y1="677.6" x2="75.8" y2="684.1"/>
			<line
			id="b-sync-angkle-right" class="stroke-dash4 color-stroke-medium-gray" x1="163.5" y1="677.6" x2="142.2" y2="684.1"/>
			<line
			id="b-sync-bottom
			-line" class="none color-stroke-medium-gray stroke-dash7" x1="92" y1="375.7" x2="125.4" y2="375.7"/>
		</g>
	</g>
	<g id="b-sync-t">
		<path id="b-sync-top"
		class="color-bg-grey stroke-dash7 color-stroke-medium-gray" d="M109,296h44.7l13.6-90l31.1-14.8L187.2,143c-26.4-28.8-78.2-25.5-78.2-25.5
			s-51.8-3.2-78.2,25.5l-11.1,48.2l31,14.8l13.6,90H109z"/>
		<path id="b-sync-neck"
		class="st10 none
		color-stroke-medium
		-gray stroke-dash7"
		d="M157,124.2c0,0-4.1,13.7-12,25.3s-23.8,15.8-36,15.8s-28.1-4.2-36-15.8s-12-25.3-12-25.3
			S102.8,108.6,157,124.2z"/>
	</g>
</g>
<g id="b-sync-head">
	<path id="bg-head" class="st5 color-medium-grey" d="M59.1,103V3h100v100H59.1z M78.8,83.3h60.5V24.1H78.8V83.3z"/>
	<path id="outline" class="color-bg-grey" d="M157.1,5v96h-96V5H157.1 M76.8,85.3h4h56.5h4v-4V26.1v-4h-4H80.8h-4v4v55.2V85.3 M161.1,1h-104
		v104h104V1L161.1,1z M80.8,81.3V26.1h56.5v55.2H80.8L80.8,81.3z"/>
	<g id="refresh-head">
		<g>
			<defs>
				<path id="SVGID_1_" d="M61,101.2V5h96.2v96.2H61z M77,85h64.5V22.2H77V85z"/>
			</defs>
			<clipPath id="SVGID_2_">
				<use xlink:href="#SVGID_1_"  style="overflow:visible;"/>
			</clipPath>
			<rect x="60.8" y="1"
			class="status
			color-white" width="96.5" height="4.6"/>
		</g>
	</g>
</g>
<g id="points">
	<g id="basePoint-restingHeartRate">
		<circle class="color-grey"
		cx="108.7" cy="141.3" r="5"/>
		<circle class="st0 color-purple"
		cx="108.7" cy="141.3" r="3"/>
	</g>
	<g id="basePoint-foodPlan">
		<circle class="color-grey" cx="167.7" cy="207.3" r="5"/>
		<circle class="color-yellow"
		cx="167.7" cy="207.3" r="3"/>
	</g>
	<g id="basePoint-estimatedCaloriesOut">
		<circle class="color-grey" cx="153" cy="296" r="5"/>
		<circle class="color-yellow"
		cx="153" cy="296" r="3"/>
	</g>
	<g id="basePoint-calories">
		<circle class="color-grey" cx="178.7" cy="366" r="5"/>
		<circle class="color-red"
		cx="178.7" cy="366" r="3"/>
	</g>
	<g id="basePoint-steps">
		<circle class="color-grey" cx="168.7" cy="505.6" r="5"/>
		<circle class="color-red"
		cx="168.7" cy="505.6" r="3"/>
	</g>
	<g id="basePoint-activityCalories">
		<circle class="color-grey" cx="126.4" cy="524.5" r="5"/>
		<circle class="color-red"
		cx="126.4" cy="524.5" r="3"/>
	</g>
	<g id="basePoint-floors">
		<circle class="color-grey" cx="165.7" cy="675.1" r="5"/>
		<circle class="color-red"
		cx="165.7" cy="675.1" r="3"/>
	</g>
	<g id="basePoint-distance">
		<circle class="color-grey" cx="142.2" cy="684.1" r="5"/>
		<circle class="color-red"
		cx="142.2" cy="684.1" r="3"/>
	</g>
	<g id="add-btn-logWeight">
		<circle class="color-yellow"
		cx="50.7" cy="705.2" r="10"/>
		<polygon points="55.7,704.2 51.7,704.2 51.7,700.2 49.7,700.2 49.7,704.2 45.7,704.2 45.7,706.2 49.7,706.2 49.7,710.2 
			51.7,710.2 51.7,706.2 55.7,706.2 		"/>
	</g>
</g>
</svg>
