
<svg version="1.1" id="Layer_1" xmlns="http://www.w3.org/2000/svg" xmlns:xlink="http://www.w3.org/1999/xlink" x="0px" y="0px"
	 width="218px" height="720px" viewBox="0 0 218 720" style="enable-background:new 0 0 218 720;" xml:space="preserve">
<style type="text/css">
<![CDATA[
	.st0{display:none;clip-path:url(#mask_1_);fill:#FFFFFF;}
	.st1{fill:#512B8D;}
	.st2{fill:#F0F0F0;}
	.st3{fill:#F74D52;}
	.st4{fill:#C0C3C5;}
	.st5{fill:none;stroke:#C0C3C5;stroke-width:7;stroke-linejoin:round;stroke-miterlimit:10;}
	.st6{fill:#FAB657;}
	.st7{fill:#FFFFFF;}
	.st8{fill:#FFFFFF;stroke:#C0C3C5;stroke-width:7;stroke-linejoin:round;stroke-miterlimit:10;}
	.st9{fill:#A0A6A9;}
]]>
</style>
<g id="b-sync-head">
	<path class="st2" d="M59.1,103V3h100v100H59.1z M78.8,83.3h60.5V24.1H78.8V83.3z"/>
	<path class="st4" d="M157.1,5v96h-96V5H157.1 M76.8,85.3h4h56.5h4v-4V26.1v-4h-4H80.8h-4v4v55.2V85.3 M161.1,1h-104v104h104V1
		L161.1,1z M80.8,81.3V26.1h56.5v55.2H80.8L80.8,81.3z"/>
	<g id="refresh-head">
		<defs>
			<path id="mask" d="M61,101.2V5h96.2v96.2H61z M77,85h64.5V22.2H77V85z"/>
		</defs>
		<clipPath id="mask_1_">
			<use xlink:href="#mask"  style="overflow:visible;"/>
		</clipPath>
		<rect x="60.8" y="4.9" class="st0" width="96.5" height="4.6"/>
	</g>
</g>
<g id="before-body">
	<g id="b-arms">
		<path id="b-left-arm" class="st8" d="M32.6,192v72.4c0,0-7.2,37.1-9.1,50.1c-1.8,12.9-3.2,15,0,31.5c3.2,16.7,7.7,37.1,7.7,37.1
			H36c0,0,11.9-44.1,43.2-87.2l-30.9-96.5L32.6,192z"/>
		<path id="b-right-arm" class="st8" d="M185.5,192v72.4c0,0,7.2,37.1,9.1,50.1c1.8,12.9,3.2,15,0,31.5c-3.2,16.7-7.7,37.1-7.7,37.1
			h-4.8c0,0-10.5-44.1-41.9-87.2l29.6-96.5L185.5,192z"/>
	</g>
	<g id="b-b">
		<polygon class="st8" points="210.1,715.2 163.2,677.6 192.4,677.6 169.6,296 108.7,296 108.5,296 47.5,296 24.8,677.6 54.2,677.6
			7.3,715.2 75.5,703.1 75.5,677.6 108.5,677.6 108.7,677.6 141.9,677.6 141.9,703.1 		"/>
		<g id="b-sync-layer-line_1_">
			<polyline class="st5" points="108.5,677.6 108.5,376.7 91.9,376.7 108.5,376.7 125.3,376.7 			"/>
			<line id="b-sync-ankle-left_1_" class="st8" x1="54.5" y1="677.6" x2="75.8" y2="677.6"/>
			<line id="b-sync-angkle-right" class="st8" x1="163.5" y1="677.6" x2="142.2" y2="677.6"/>
		</g>
	</g>
	<g id="b-t">
		<path id="b-top" class="st8" d="M108.7,296h61.7l-3.5-90l31.1-14.8L186.9,143c-26.4-28.8-78.2-25.5-78.2-25.5s-51.8-3.2-78.2,25.5
			l-11.1,48.2l31,14.8l-2.9,90H108.7z"/>
		<path id="b-neck" class="st5" d="M156.7,124.2c0,0-4.1,13.7-12,25.3s-23.8,15.8-36,15.8s-28.1-4.2-36-15.8s-12-25.3-12-25.3
			S102.5,108.6,156.7,124.2z"/>
	</g>
</g>
<g id="points">
	<g id="basePoint-restingHeartRate">
		<circle class="st9" cx="108.7" cy="141.3" r="5"/>
		<circle class="st1" cx="108.7" cy="141.3" r="3"/>
	</g>
	<g id="basePoint-foodPlan">
		<circle class="st9" cx="167.7" cy="207.3" r="5"/>
		<circle class="st6" cx="167.7" cy="207.3" r="3"/>
	</g>
	<g id="basePoint-estimatedCaloriesOut">
		<circle class="st9" cx="170" cy="296" r="5"/>
		<circle class="st6" cx="170" cy="296" r="3"/>
	</g>
	<g id="basePoint-calories">
		<circle class="st9" cx="173.7" cy="366" r="5"/>
		<circle class="st3" cx="173.7" cy="366" r="3"/>
	</g>
	<g id="basePoint-steps">
		<circle class="st9" cx="181.7" cy="505.6" r="5"/>
		<circle class="st3" cx="181.7" cy="505.6" r="3"/>
	</g>
	<g id="basePoint-activityCalories">
		<circle class="st9" cx="108.4" cy="524.5" r="5"/>
		<circle class="st3" cx="108.4" cy="524.5" r="3"/>
	</g>
	<g id="basePoint-floors">
		<circle class="st9" cx="191.7" cy="676.1" r="5"/>
		<circle class="st3" cx="191.7" cy="676.1" r="3"/>
	</g>
	<g id="basePoint-distance">
		<circle class="st9" cx="108.2" cy="676.1" r="5"/>
		<circle class="st3" cx="108.2" cy="676.1" r="3"/>
	</g>
	<g id="add-btn-logWeight">
		<circle class="st6" cx="50.7" cy="705.2" r="10"/>
		<polygon class="st7" points="55.7,704.2 51.7,704.2 51.7,700.2 49.7,700.2 49.7,704.2 45.7,704.2 45.7,706.2 49.7,706.2 
			49.7,710.2 51.7,710.2 51.7,706.2 55.7,706.2 		"/>
	</g>
</g>
</svg>
