<?xml version="1.0" encoding="utf-8"?>
<!-- Generator: Adobe Illustrator 15.0.0, SVG Export Plug-In . SVG Version: 6.00 Build 0)  -->
<!DOCTYPE svg PUBLIC "-//W3C//DTD SVG 1.1//EN" "http://www.w3.org/Graphics/SVG/1.1/DTD/svg11.dtd">
<svg version="1.1" id="reward" xmlns="http://www.w3.org/2000/svg" xmlns:xlink="http://www.w3.org/1999/xlink" x="0px" y="0px"
	 width="60px" height="100px" viewBox="0 0 60 100" style="enable-background:new 0 0 60 100;" xml:space="preserve">
<style type="text/css">
<![CDATA[
	.st0{fill:#2D0F0F;}
	.st1{fill:#FF2765;}
	.st2{fill:#FFFFFF;}
	.st3{fill:#646A6E;}
	.st4{fill:#D5D8DA;}
]]>
</style>
<g id="bg">
	<rect class="st4" width="60" height="49"/>
	<rect y="51" class="st4" width="60" height="49"/>
</g>
<g id="top_2_">
	<g id="left_1_">
		<path class="st2" d="M15.6,50.8L12.5,52c0,0.7,0.1,1.5,0.4,2.6c0.6,3.3,1.5,7.4,1.5,7.4h1c0,0,0.4-3,1.6-7.2l0,0L15.6,50.8z"/>
		<path class="st3" d="M15.4,62.6h-1c-0.3,0-0.5-0.2-0.5-0.4c0,0-0.9-4.1-1.5-7.4c-0.2-1.2-0.3-2-0.4-2.7c0-0.2,0.1-0.5,0.4-0.5
			l3.1-1.2c0.1-0.1,0.3,0,0.4,0c0.1,0.1,0.2,0.2,0.3,0.3l1.4,3.9c0,0.1,0.1,0.2,0,0.4c-1.2,4.1-1.6,7.1-1.6,7.2
			C15.9,62.4,15.7,62.6,15.4,62.6z M14.9,61.5L14.9,61.5c0.2-1,0.6-3.5,1.6-6.7l-1.1-3.2l-2.2,0.8c0.1,0.6,0.2,1.2,0.3,2.1
			C14,57.2,14.6,60.3,14.9,61.5z"/>
	</g>
	<g id="blouse_1_">
		<path id="bg_1_" class="st1" d="M40,30.9l1.4,9.3l2.7,10.5l3.2,1.1c0-2.1-0.3-3.6-0.3-3.6c-0.4-2.6-1.8-10-1.8-10V23.9l0.3-9.8
			C40.2,8.4,29.9,9,29.9,9s-10.3-0.6-15.6,5.1l0.4,9.8v14.4c0,0-1.4,7.4-1.8,10c-0.2,1.7-0.4,2.4-0.4,3.7l3.1-1.2l3-10.6l1.4-9.3
			l0.8,13.7h0.4H39L40,30.9z"/>
	</g>
	<g id="right_1_">
		<path class="st2" d="M44.1,50.8L44.1,50.8l-1.2,3.5c0.7,2.3,1.3,4.8,1.6,7.7h1c0,0,0.9-4.1,1.5-7.4c0.2-0.9,0.3-1.8,0.3-2.7
			L44.1,50.8z"/>
		<path class="st3" d="M45.5,62.6h-1c-0.3,0-0.5-0.2-0.5-0.5c-0.3-2.6-0.9-5.1-1.6-7.6c0-0.1,0-0.2,0-0.3l1.2-3.5
			c0-0.1,0.1-0.2,0.2-0.3c0.2-0.1,0.4-0.2,0.6-0.1l3.2,1.1c0.2,0.1,0.4,0.3,0.4,0.5c0,1-0.1,1.9-0.3,2.7C46.9,58,46,62.1,46,62.1
			C46,62.4,45.7,62.6,45.5,62.6z M45,61.5L45,61.5c0.3-1.1,1-4.3,1.5-7c0.1-0.7,0.2-1.4,0.3-2.2l-2.3-0.8l-1,2.8
			C44.1,56.7,44.6,59.1,45,61.5z"/>
	</g>
	<g id="outline_1_">
		<path id="top-outline_1_" class="st3" d="M48,48.2c-0.4-2.5-1.6-9-1.8-9.9V23.9l0.3-9.8c0-0.3-0.1-0.5-0.3-0.7
			C41.7,8.6,33.9,8,30.8,8c-0.5,0-0.8,0-1,0c-0.1,0-0.5,0-1,0c-3.1,0-10.9,0.5-15.4,5.4c-0.2,0.2-0.3,0.4-0.3,0.7l0.4,9.8v14.3
			c-0.2,0.9-1.5,7.5-1.8,9.9c-0.1,0.4-0.1,0.7-0.2,1c-0.2,1-0.3,1.8-0.2,2.9c0,0.3,0.2,0.6,0.4,0.8c0.2,0.1,0.3,0.2,0.5,0.2
			c0.1,0,0.2,0,0.3-0.1l3.1-1.2c0.3-0.1,0.5-0.3,0.6-0.6l3-10.6l0.2,4.2c0,0.5,0.5,0.9,1,0.9H39c0.5,0,0.9-0.4,1-0.9l0.4-5l0.1,0.7
			c0,0,0,0.1,0,0.1l2.7,10.5c0.1,0.3,0.3,0.6,0.6,0.7l3.2,1.1c0.3,0.1,0.6,0.1,0.9-0.1c0.3-0.2,0.4-0.5,0.4-0.8
			C48.3,50,48,48.4,48,48.2z M44.9,50.1l-2.6-10L41,31.3l0.9-8.9L40,22.2l-0.8,8.2c-0.1,0.1-0.1,0.3-0.1,0.4L38.6,36l-0.7,7.7h-16
			l-1.4-21.3l-1.9,0.1l0.6,8.2c0,0,0,0.1,0,0.1l-1.4,9.3l-2.8,10l-1.3,0.5c0-0.3,0.1-0.7,0.2-1.1c0-0.3,0.1-0.7,0.2-1
			c0.4-2.5,1.8-9.9,1.8-9.9c0-0.1,0-0.1,0-0.2V23.9c0,0,0,0,0,0l-0.4-9.4c4.1-4.2,11.5-4.5,13.7-4.5c0.6,0,0.9,0,0.9,0
			c0,0,0.1,0,0.1,0c0,0,0.3,0,0.9,0c2.2,0,9.5,0.3,13.7,4.5l-0.3,9.4v14.4c0,0.1,0,0.1,0,0.2c0,0.1,1.4,7.4,1.8,9.9c0,0,0,0,0,0.1
			c0,0,0.2,0.8,0.2,2L44.9,50.1z"/>
		<path id="bg-neck_1_" class="st2" d="M24.6,9.6l5.3,12.8l5.8-12.8C35.7,9.5,30.2,8.2,24.6,9.6z"/>
		<path id="neck-outline_1_" class="st3" d="M36.2,9.3C36.2,9.1,36,9,35.9,9c-0.1,0-2.5-0.6-5.8-0.6c-2,0-3.8,0.2-5.5,0.6
			c-0.2,0-0.3,0.1-0.4,0.3c-0.1,0.1-0.1,0.3,0,0.5l5.2,12.7v22.6h1.1V22.5l5.8-12.7C36.3,9.6,36.3,9.4,36.2,9.3z M29.9,20.9l-4.5-11
			c1.4-0.3,3-0.5,4.6-0.5c2.2,0,4,0.3,4.9,0.4L29.9,20.9z"/>
	</g>
</g>
<g id="skirt_1_">
	<path id="bg-skirt_1_" class="st0" d="M41.8,90.6c2.4-9.1,3.5-25.8,1.7-33.9c-1.8-8-4.7-12.1-4.7-12.1h-8.9H21
		c0,0-2.8,4.1-4.7,12.1c-1.9,8-0.7,24.8,1.7,33.9H41.8z"/>
	<path class="st3" d="M41.8,91.6H18c-0.4,0-0.8-0.3-0.9-0.7c-2.4-8.9-3.6-25.9-1.7-34.3c1.9-8.1,4.7-12.3,4.8-12.5
		c0.2-0.3,0.5-0.4,0.8-0.4h17.8c0.3,0,0.6,0.2,0.8,0.4c0.1,0.2,2.9,4.3,4.8,12.5c1.9,8.5,0.7,25.4-1.7,34.3
		C42.6,91.3,42.2,91.6,41.8,91.6z M18.7,89.6H41c2.1-8.7,3.3-24.8,1.5-32.7C41,50.7,39,46.8,38.2,45.6H21.5c-0.7,1.2-2.8,5-4.2,11.4
		C15.5,64.8,16.6,80.9,18.7,89.6z"/>
</g>
</svg>
