<svg version="1.1" xmlns="http://www.w3.org/2000/svg" xmlns:xlink="http://www.w3.org/1999/xlink" x="0px" y="0px"
	 width="32px" height="32px" viewBox="0 0 32 32">
<style type="text/css">
<![CDATA[
	#steps .st0{fill:none;
	stroke:#F74D52;stroke-width:2;stroke-miterlimit:10;}
	#steps .st1{fill:#F74D52;}
]]>
</style>
	<defs>
		<symbol id="steps">
			<path id="circle_5_" class="st0" d="M12.6,30.9c-7.5,0-12.7-8-9.5-14.8c1.4-3.2,4.5-5.5,8-6c3.5-0.5,7.1,0.8,9.4,3.5
				c2.7,3.1,3.3,7.5,1.7,11.2C20.4,28.5,16.6,30.9,12.6,30.9"/>
			<g id="desc">
				<path class="st1" d="M23.7,13.4c-0.3,1.7,0,3,1.6,3.3c1.4,0.3,2.4-0.7,2.7-2.4c0.2-1,0.3-1.7,0.3-1.7l-4.2-0.9
					C24.1,11.8,23.9,12.4,23.7,13.4z"/>
				<path class="st1" d="M27,0.8c-1.2-0.2-2.8,0.8-3.3,4.5c-0.2,1.7,0.2,3,0.5,4.1c0.1,0.4,0.2,1.4,0.6,1.4c1-0.2,2.7,0,3.7,0.4
					c0.3,0.1,0.5-0.9,0.6-1.1C31,3,28.2,0.9,27,0.8z"/>
				<path class="st1" d="M19.6,4.4c-1,0-3.5,1.2-3.5,6.3c1.7,0.6,3.3,1.7,4.4,3.1c0.3,0.1,0.5-0.1,0.6-0.5c0.4-1,1.1-2.3,1.1-4
					C22.2,5.5,20.8,4.4,19.6,4.4z"/>
			</g>
		</symbol>
	</defs>
	<use xlink:href="#steps" x="0" y="0"/>
</svg>
