<svg version="1.1" xmlns="http://www.w3.org/2000/svg" xmlns:xlink="http://www.w3.org/1999/xlink" x="0px" y="0px"
	 width="32px" height="32px" viewBox="0 0 32 32" style="enable-background:new 0 0 32 32;" xml:space="preserve">
<style type="text/css">
<![CDATA[
	#distance .st0{fill:none;
	stroke:#F74D52;stroke-width:2;stroke-miterlimit:10;}
	#distance .st1{fill:#F74D52;}
]]>
</style>
	<defs>
	<symbol id="distance">
<g id="desc">
	<path class="st1" d="M28.1,4.9l-6.4-2.1c-0.1,0-0.2,0-0.3,0.1c-0.1,0.1-0.2,0.2-0.2,0.3l0,4.8c0,0.1,0.1,0.2,0.2,0.3
		c0.1,0,0.1,0.1,0.2,0.1c0.1,0,0.1,0,0.1,0l6.4-2.7c0.1-0.1,0.2-0.2,0.2-0.3C28.4,5.1,28.3,5,28.1,4.9z"/>
	<path class="st1" d="M23.6,13.8c0-1.6-1.2-2.8-2.7-3l-0.1-8.3c0.3-0.2,0.5-0.5,0.5-0.9c0-0.6-0.5-1.1-1.1-1.1
		c-0.6,0-1.1,0.5-1.1,1.1c0,0.4,0.2,0.8,0.6,1l0.1,8.3c-1,0.2-1.8,0.9-2.2,1.9l-5.4,0c-0.5-1.1-1.6-1.9-2.9-1.9
		c-1.3,0-2.4,0.8-2.8,2c0,0-0.4,1.2,0,2.3c0.3,0.8,1,1.4,1.8,1.7c1.5-1.8,3.8-2.9,6.3-2.9c2.5,0,4.8,1.2,6.3,3
		C22.5,16.7,23.6,15.4,23.6,13.8z"/>
</g>
<path id="circle_5_" class="st0" d="M14.6,30.9c-5.9,0-10.1-6.4-7.5-11.8c1.1-2.5,3.6-4.3,6.4-4.8c2.8-0.4,5.6,0.6,7.5,2.8
	c2.1,2.5,2.6,6,1.3,8.9C20.8,28.9,17.8,30.9,14.6,30.9"/>
		</symbol>
	</defs>
	<use xlink:href="#distance" x="0" y="0"/>
</svg>
