<svg version="1.1" xmlns="http://www.w3.org/2000/svg" xmlns:xlink="http://www.w3.org/1999/xlink" x="0px"
	 y="0px" width="32px" height="32px" viewBox="0 0 32 32" style="enable-background:new 0 0 32 32;" xml:space="preserve">
<style type="text/css">
<![CDATA[
	#restingHeartRate
	.st0{fill:#53288B;}
	#restingHeartRate
	.st1{fill:none;stroke:#512B8D;stroke-width:2;stroke-miterlimit:10;}
]]>
</style>
    <defs>
      <symbol id="restingHeartRate">
				<path id="desc" class="st0" d="M29.1,3.1c-1.8-1-4.3-0.7-5.8,0.7c-1.5-1.4-3.9-1.7-5.8-0.7C15.9,4,15,5.6,15,7.4c0,0.3,0,0.6,0.1,1
					c0.8,0.2,1.5,0.5,2.2,0.9h0.2h1.2h3.2l1.1-3c0.1-0.2,0.3-0.4,0.5-0.4c0.2,0,0.4,0.2,0.5,0.5l0.8,4l1-2c0.1-0.2,0.3-0.3,0.5-0.3h2
					c0.3,0,0.5,0.3,0.5,0.6c0,0.4-0.2,0.6-0.5,0.6h-1.7l-1.6,3c-0.1,0.2-0.3,0.3-0.5,0.3c0,0-0.1,0-0.1,0c-0.2,0-0.4-0.2-0.4-0.5
					l-0.7-3.7l-0.6,1.6c-0.1,0.2-0.3,0.4-0.5,0.4h-3c1.9,1.6,3.3,3.8,3.8,6.4c0.1,0,0.1,0.1,0.2,0.1c0.1,0,0.2,0,0.3-0.1
					c0.3-0.2,7-4.4,7.8-8c0.2-0.5,0.2-1,0.2-1.5C31.6,5.6,30.6,4,29.1,3.1z"/>
				<path id="circle_1_" class="st1" d="M11.9,29.9c-7.8,0-13.2-8.3-9.9-15.5c1.5-3.3,4.7-5.7,8.3-6.3c3.6-0.5,7.4,0.8,9.8,3.6
					c2.8,3.2,3.5,7.9,1.7,11.7C20.1,27.4,16.1,29.9,11.9,29.9"/>
		      </symbol>
      </defs>
      <use xlink:href="#restingHeartRate" x="0" y="0"/>
</svg>
