<svg version="1.1" xmlns="http://www.w3.org/2000/svg" xmlns:xlink="http://www.w3.org/1999/xlink" x="0px" y="0px"
	 width="32px" height="32px" viewBox="0 0 32 32">
<style type="text/css">
<![CDATA[
	#calories .st0{fill:none;
	stroke:#F74D52;stroke-width:2;stroke-miterlimit:10;}
	#calories	.st1{fill:#F74D52;}
]]>
</style>
	<defs>
	<symbol id="calories">
		<path id="circle_5_" class="st0" d="M12.4,30C4.5,30-1,21.5,2.3,14.3c1.5-3.4,4.8-5.8,8.5-6.4c3.7-0.5,7.5,0.8,10,3.7
			c2.9,3.3,3.5,8,1.8,11.8C20.7,27.4,16.7,30,12.4,30"/>
		<path id="desc" class="st1" d="M30.9,18.1L27.4,15l2.9-2.9c0.3-0.3,0.1-0.8-0.3-0.9l-3.4-0.7l4.2-6.1C31,4,30.6,3.4,30.1,3.6
			l-6.7,2.6l-1-5.5c-0.1-0.5-0.7-0.6-0.9-0.2L18,6l-3.3-2.1c-0.4-0.2-0.8,0-0.8,0.5l0.2,3.6c1.5,0.2,3,0.6,4.3,1.3l1.8-2.8l0.6,3.6
			l4.4-1.7l-2.7,4l2.3,0.5l-1.6,1.6c0.1,0.3,0.3,0.6,0.4,1l1.7,1.5l-1.3,0c0.2,0.8,0.3,1.6,0.3,2.4c0,0.7-0.1,1.4-0.2,2.1l0.4,0.5
			l0.2-3l5.8,0C31.1,19,31.3,18.4,30.9,18.1z"/>
		</symbol>
	</defs>
	<use xlink:href="#calories" x="0" y="0"/>
</svg>
