<svg version="1.1" xmlns="http://www.w3.org/2000/svg" xmlns:xlink="http://www.w3.org/1999/xlink"
	 x="0px" y="0px"
	 width="32px" height="32px" viewBox="0 0 32 32" style="enable-background:new 0 0 32 32;" xml:space="preserve">
<style type="text/css">
<![CDATA[
	#estimatedCaloriesOut .st0{fill:none;
	stroke:#FAB657;stroke-width:2;stroke-miterlimit:10;}
	#estimatedCaloriesOut .st1{fill:#F8B55D;}
]]>
</style>
	<defs>
	<symbol id="estimatedCaloriesOut">
		<g id="desc">
			<path class="st1" d="M28.3,1.8c-0.1-0.1-0.2-0.2-0.3-0.2c-0.1,0-0.2,0.1-0.3,0.2L25.3,8c-0.1,0.3-0.4,0.5-0.7,0.3l-0.2-0.1
				c-0.3-0.1-0.4-0.5-0.3-0.8L26,0.9c0.1-0.3-0.1-0.5-0.3-0.6c-0.2-0.1-0.5,0-0.6,0.3l-2.9,6.1C22,7,21.7,7.2,21.4,7.1L21.2,7
				c-0.3-0.1-0.4-0.5-0.3-0.8L23.1,0c0-0.1,0-0.2-0.1-0.3c-0.1-0.1-0.2-0.1-0.3-0.1c-1.1,0.4-2,2.2-3.6,6.6c-0.2,0.6-0.4,2.7-0.6,5
				c1.9,0.4,3.7,1.3,5,2.6c1.5-2,3-4,3.2-4.6C28.4,4.7,28.9,2.8,28.3,1.8z"/>
			<path class="st1" d="M12.9,9.6L17.8,7L16,3.6l-1.1,0.6L14,2.5l-0.6,0.3l-0.7-1.3L4.1,6l0.7,1.3L4,7.6l0.9,1.7L3.8,10l1.8,3.4
				l4.9-2.6l0.9,1.7c0.8-0.5,1.6-0.9,2.5-1.2L12.9,9.6z M15.7,5.1l0.7,1.4L14,7.8l-0.7-1.4L15.7,5.1z M11.7,4.3l1.7-0.9l0.5,1
				l-1.7,0.9L11.7,4.3z"/>
		</g>
		<path id="circle_5_" class="st0" d="M16.4,30.4c-6.7,0-11.3-7.2-8.5-13.2c1.3-2.8,4-4.9,7.1-5.4c3.1-0.4,6.3,0.7,8.4,3.1
			c2.4,2.8,3,6.7,1.5,10C23.4,28.2,20.1,30.4,16.4,30.4"/>
		</symbol>
	</defs>
	<use xlink:href="#estimatedCaloriesOut" x="0" y="0"/>
</svg>
