<svg version="1.1" xmlns="http://www.w3.org/2000/svg" xmlns:xlink="http://www.w3.org/1999/xlink" x="0px"
	 y="0px" width="32px"
	 height="32px" viewBox="0 0 32 32" style="enable-background:new 0 0 32 32;" xml:space="preserve">
<style type="text/css">
<![CDATA[
	#activityCalories .st0{fill:none;stroke:#F74D52;stroke-width:2;stroke-miterlimit:10;}
	#activityCalories	.st1{fill:#F74D52;}
]]>
</style>
	<defs>
	<symbol id="activityCalories">
		<path id="circle_5_" class="st0" d="M11.7,29.7c-7.2,0-12.3-7.7-9.2-14.3c1.4-3.1,4.4-5.3,7.7-5.8c3.4-0.5,6.8,0.8,9.1,3.4
			c2.6,3,3.2,7.3,1.6,10.8C19.2,27.3,15.6,29.7,11.7,29.7"/>
		<path id="desc" class="st1" d="M30.6,14.6l0.3-0.5l-1.4-1l0.6-0.8l-2.7-2L25,13.8l-8.4-6l2.5-3.4l-2.7-2l-0.6,0.8l-1.4-1l-0.3,0.5
			l-1-0.7L8.8,8l1,0.7L9.4,9.2L10,9.6c0.6-0.1,1.2-0.2,1.8-0.2c1.2,0,2.3,0.2,3.3,0.6l0.3-0.5l8.4,6l-2,2.7c0,0.4,0.1,0.7,0.1,1.1
			l2.1,1.5l0.6-0.8l1.4,1l0.3-0.5l1,0.7l4.3-6L30.6,14.6z M14.3,4.9l-0.8-0.6l0.8-1.2l0.8,0.6L14.3,4.9z M16.8,3.6l1.1,0.8l-1.2,1.7
			l-1.1-0.8L16.8,3.6z M26.5,13.2l1.2-1.7l1.1,0.8L27.6,14L26.5,13.2z M29.2,15.6L28.4,15l0.8-1.2l0.8,0.6L29.2,15.6z"/>
			</symbol>
  	</defs>
  	<use xlink:href="#activityCalories" x="0" y="0"/>
</svg>
