<svg version="1.1" xmlns="http://www.w3.org/2000/svg" xmlns:xlink="http://www.w3.org/1999/xlink" x="0px" y="0px"
	 width="32px" height="32px" viewBox="0 0 32 32">
<style type="text/css">
<![CDATA[
	#foodPlan .st0{fill:none;stroke:#FAB657;stroke-width:2;stroke-miterlimit:10;}
	#foodPlan .st1{fill:#FAB657;}
]]>
</style>
    <defs>
      <symbol id="foodPlan">
			<path id="circle_1_" class="st0" d="M15.1,31c-6.7,0-11.3-7.2-8.5-13.2c1.3-2.8,4-4.9,7.1-5.4c3.1-0.4,6.3,0.7,8.4,3.1
				c2.4,2.8,3,6.7,1.5,10C22.1,28.8,18.7,31,15.1,31"/>
			<g id="steam">
				<path class="st1" d="M19.6,4.3c0-0.1-0.1-0.2-0.2-0.3l-0.1-0.1c0,0-0.1-0.1-0.1-0.1l-0.1-0.1l0,0l0,0l0,0l0,0l0,0l0,0l0,0
					c0,0-0.1-0.1-0.1-0.1c0,0-0.1-0.1-0.1-0.1l0,0c0,0,0,0,0-0.1c0,0,0-0.1-0.1-0.1c-0.1-0.1-0.1-0.3-0.2-0.4c-0.1-0.3-0.1-0.6,0-0.9
					c0.1-0.6,0.1-1,0.1-1l0.1-0.4l-0.3,0.2c0,0-0.4,0.3-0.8,1c-0.2,0.4-0.3,0.8-0.3,1.2c0,0.2,0,0.5,0.1,0.7c0,0.1,0.2,0.3,0.2,0.4
					c0.1,0.1,0.1,0.2,0.2,0.2c0,0,0,0,0.1,0.1l0.2,0.2c0,0,0,0.1,0.1,0.1c0,0,0,0.1,0.1,0.1l0,0c0.1,0.1,0.1,0.3,0.2,0.4
					c0.1,0.3,0.1,0.6,0,0.9c-0.1,0.6-0.1,1-0.1,1l-0.1,0.4l0.3-0.2c0,0,0.4-0.3,0.8-1c0.1-0.2,0.2-0.4,0.2-0.5c0.1-0.2,0.1-0.4,0.1-0.7
					C19.7,4.8,19.7,4.5,19.6,4.3z"/>
				<path class="st1" d="M22,3.6c0-0.1-0.1-0.2-0.2-0.3c0,0,0-0.1-0.1-0.1c0,0-0.1-0.1-0.1-0.1l-0.2-0.2v0c0,0-0.1-0.1-0.1-0.1
					c0,0-0.1-0.1-0.1-0.1l0,0c0,0,0,0,0-0.1c0,0,0-0.1-0.1-0.1C21.1,2.4,21,2.3,21,2.1C21,1.8,21,1.5,21,1.2c0.1-0.6,0.1-1,0.1-1
					l0.1-0.4l-0.3,0.2c0,0-0.4,0.3-0.8,1c-0.2,0.4-0.3,0.8-0.3,1.2c0,0.2,0,0.5,0.1,0.7c0,0.1,0.1,0.3,0.2,0.4c0.1,0.1,0.1,0.2,0.2,0.2
					c0,0,0,0,0.1,0.1l0.2,0.2c0,0,0,0,0.1,0.1c0,0,0,0.1,0.1,0.1c0.1,0.1,0.1,0.3,0.2,0.4c0.1,0.3,0.1,0.6,0,0.9c-0.1,0.6-0.1,1-0.1,1
					l-0.1,0.4L21,6.5c0,0,0.4-0.3,0.8-1C21.9,5.4,22,5.2,22,5c0.1-0.2,0.1-0.4,0.1-0.6C22.1,4.1,22.1,3.8,22,3.6z"/>
				<path class="st1" d="M25,4.1c0-0.1-0.1-0.2-0.2-0.3c0,0,0-0.1-0.1-0.1c0,0-0.1-0.1-0.1-0.1l-0.2-0.2c0,0-0.1-0.1-0.1-0.1
					c0,0-0.1-0.1-0.1-0.1l0,0c0,0,0,0,0-0.1c0,0,0-0.1-0.1-0.1C24.1,2.9,24,2.8,24,2.6C24,2.3,24,2,24,1.7c0.1-0.6,0.1-1,0.1-1l0.1-0.4
					l-0.3,0.2c0,0-0.4,0.3-0.8,1c-0.2,0.4-0.3,0.8-0.3,1.2c0,0.2,0,0.5,0.1,0.7c0,0.1,0.1,0.2,0.2,0.4C23.2,4,23.3,4,23.3,4.1
					c0,0,0,0,0.1,0.1l0.2,0.2c0,0,0,0,0.1,0.1c0,0,0,0.1,0.1,0.1c0.1,0.1,0.1,0.3,0.2,0.4c0.1,0.3,0.1,0.6,0,0.9c0,0.6-0.1,1-0.1,1
					l-0.1,0.4L24,7c0,0,0.4-0.3,0.8-1C24.9,5.9,25,5.7,25,5.5c0.1-0.2,0.1-0.4,0.1-0.7C25.1,4.6,25.1,4.3,25,4.1z"/>
			</g>
			<path id="pot" class="st1" d="M12.6,8c0.2,1.5,0.7,2.9,1.6,4.1c0.3,0,0.5,0,0.8,0c2.9,0,5.4,1.3,7.1,3.3l1.6,0.1
				c0,0,1.4-0.7,1.4-0.7c2.5-1.3,4.2-3.6,4.6-6.3L12.6,8z M26.1,12.2c-1.5,1.2-3,1.7-3,1.7c0,0-0.1,0-0.1,0c-0.1,0-0.3-0.1-0.3-0.1
				c-0.1-0.1,0-0.3,0.2-0.3c0,0,1.4-0.4,2.8-1.6c1.4-1.1,1.8-2.5,1.9-2.5c0-0.1,0.2-0.2,0.4-0.2c0.2,0,0.3,0.2,0.3,0.3
				C28,9.6,27.6,11,26.1,12.2z"/>
	      </symbol>
    </defs>
    <use xlink:href="#foodPlan" x="0" y="0"/>
</svg>
