<svg version="1.1" xmlns="http://www.w3.org/2000/svg" xmlns:xlink="http://www.w3.org/1999/xlink" x="0px"
	 y="0px" width="32px" height="32px" viewBox="0 0 32 32">
<style type="text/css">
<![CDATA[
	#totalTimeInBed .st0{fill:#53288B;}
	#totalTimeInBed .st1{fill:none;
	 stroke:#512B8D;stroke-width:2;stroke-miterlimit:10;}
]]>
</style>
    <defs>
      <symbol id="totalTimeInBed">
				<g id="desc">
					<path class="st0" d="M30.3,6.2l-5,2.3l-0.2-1.1l2-4.7L24.5,4l-0.3-1.3L29,0.4l0.2,1.1l-2,4.7L30,4.9L30.3,6.2z"/>
					<path class="st0" d="M30.1,8.7c0.1-0.4-0.3-0.6-0.6-0.3l0,0c-2.1,2.1-5.6,2.1-7.7-0.1c-2-2.1-1.9-5.3,0.1-7.4c0,0,0-0.1,0.1-0.1
						c0.3-0.3,0-0.7-0.3-0.6c-1.2,0.3-2.4,0.9-3.3,1.8c-1.9,1.9-2.5,4.6-1.8,7c2.9,0.7,5.3,2.6,6.8,5.1c1.8,0,3.6-0.7,5-2.1
						C29.2,11.1,29.8,9.9,30.1,8.7z"/>
				</g>
				<circle id="circle" class="st1" cx="13.6" cy="19.6" r="11.2"/>
	      </symbol>
    </defs>
    <use xlink:href="#totalTimeInBed" x="0" y="0"/>
</svg>
