<svg version="1.1"  xmlns="http://www.w3.org/2000/svg" xmlns:xlink="http://www.w3.org/1999/xlink" x="0px"
y="0px" width="32px"
height="32px" viewBox="0 0
32 32" class="resize">
<style type="text/css">
<![CDATA[
	#totalMinutesAsleep .st0{fill:#512B8D;}
	#totalMinutesAsleep .st1{fill:none;
	 stroke:#512B8D;stroke-width:2;stroke-miterlimit:10;}
]]>
</style>
    <defs>
      <symbol id="totalMinutesAsleep">
        <path id="desc" class="st0" d="M28.8,4.6c-2.8-2.5-7.1-2.8-10.2-0.5c-1.3,1-2.3,2.3-2.9,3.8c1.8,0.6,3.5,1.7,4.8,3.2
          c0.2,0.2,0.3,0.4,0.5,0.7c0.5-0.5,1-1,1.5-1.6c0.7-0.7,1.3-1.3,2-2.1c0.5-0.6,1.3-1.3,2-0.5c0.8,0.8,0.2,1.5-0.3,2
          c-0.7,0.7-1.3,1.3-2,2c-0.7,0.7-1.3,1.3-2,2.1l0,0c0.8,1.8,1.2,3.7,1,5.6c3.1,0.1,6.1-1.7,7.5-4.4C32.5,11.5,31.6,7.1,28.8,4.6z
           M22,8.3c-1.2,1.2-3-0.7-1.8-1.8c0,0,0.2-0.2,0,0C21.4,5.3,23.2,7.1,22,8.3z M27.7,14.1c-1.2,1.2-3-0.7-1.8-1.8
          C27.1,11.1,28.9,13,27.7,14.1z"/>
        <path id="circle" class="st1" d="M12.2,29.4c-7.8,0-13.3-8.4-10-15.6c1.5-3.3,4.8-5.8,8.4-6.3c3.7-0.5,7.4,0.8,9.9,3.7
          c2.8,3.3,3.5,7.9,1.8,11.8C20.4,26.8,16.4,29.4,12.2,29.4"/>
	      </symbol>
    </defs>
    <use
    xlink:href="#totalMinutesAsleep"/>
</svg>
