<svg version="1.1" xmlns="http://www.w3.org/2000/svg" xmlns:xlink="http://www.w3.org/1999/xlink" x="0px" y="0px"
	 width="32px" height="32px" viewBox="0 0 32 32">
<style type="text/css">
<![CDATA[
	#floors .st0{fill:none;
	stroke:#F74D52;stroke-width:2;stroke-miterlimit:10;}
	#floors .st1{fill:#F54752;}
]]>
</style>
	<defs>
	<symbol id="floors">
		<path id="desc" class="st1" d="M28.1,0.3c-1.5,0-7.1-0.1-7.1,0c0,1.2,0,2.5,0,3.7c0,0.2-2.8,0.1-3.2,0.1c-0.4,0-0.7-0.2-0.7,0.2
			c0,0.7,0,1.5,0,2.2c0,0.4,0.2,0.6-0.3,0.6c-0.7,0-3.5-0.1-3.6,0c-0.1,0.1-0.1,1.8,0,2.8c0.4,0,0.8-0.1,1.1-0.1
			c5.8,0,10.4,4.7,10.4,10.4c0,0.3,0,0.6,0,0.8c0.3,0.3,0.5,0.5,0.7,0.7C26.3,14.7,27.2,7.5,28.1,0.3z"/>
		<path id="circle_5_" class="st0" d="M14.3,30.9c-7.4,0-12.6-8-9.5-14.7c1.4-3.2,4.5-5.4,8-6c3.5-0.5,7,0.8,9.4,3.5
			c2.7,3.1,3.3,7.5,1.7,11.1C22.1,28.4,18.3,30.9,14.3,30.9"/>
		</symbol>
	</defs>
	<use xlink:href="#floors" x="0" y="0"/>
</svg>
