<svg version="1.1" xmlns="http://www.w3.org/2000/svg" xmlns:xlink="http://www.w3.org/1999/xlink" x="0px" y="0px"
	 width="32px" height="32px" viewBox="0 0 32 32" style="enable-background:new 0 0 32 32;" xml:space="preserve">
<style type="text/css">
<![CDATA[
	#water .st0{fill:#53288B;}
	#water .st1{fill:none;
	stroke:#512B8D;stroke-width:2;stroke-miterlimit:10;}
]]>
</style>
    <defs>
      <symbol id="water">
				<path id="circle_1_" class="st1" d="M12.7,29.9c-7.8,0-13.2-8.3-9.9-15.5c1.5-3.3,4.7-5.7,8.3-6.3c3.6-0.5,7.4,0.8,9.8,3.6
					c2.8,3.2,3.5,7.9,1.7,11.7C20.9,27.4,17,29.9,12.7,29.9"/>
				<path id="desc" class="st0" d="M31,0.9c-0.1-0.2-0.3-0.3-0.6-0.3H18.3c-0.2,0-0.4,0.1-0.6,0.3c-0.1,0.2-0.2,0.4-0.2,0.6l0.8,7.1
					c3.6,2.1,6,6,6,10.5h4.1c0.4,0,0.7-0.3,0.7-0.7l2-17C31.3,1.3,31.2,1.1,31,0.9z M29.1,7C29.1,7,29.1,7,29.1,7l-1,8.9
					c0,0.3-2,0.4-2.2,0.4l-0.3,0c-0.3,0,2.2-0.3,2.2-0.5l1-9.1c-1.5-0.2-3.8,0.3-5.2,0.7c-1,0.3-2.1,0.4-3.2,0.2c-0.2,0-0.4-0.1-0.5-0.2
					l-0.6-5.2l0,0v0v0h10.5L29.1,7z"/>
		   </symbol>
    </defs>
    <use xlink:href="#water" x="0" y="0"/>
</svg>